<svg width="35" height="35" viewBox="0 0 35 35" fill="none" xmlns="http://www.w3.org/2000/svg">
<path d="M3 17.5094C3.00973 18.5185 3.43369 19.4832 4.18 20.1946L12.76 28.4422C13.1347 28.7995 13.6416 29 14.17 29C14.6984 29 15.2053 28.7995 15.58 28.4422C15.7675 28.2639 15.9162 28.0518 16.0178 27.8181C16.1193 27.5843 16.1716 27.3336 16.1716 27.0804C16.1716 26.8272 16.1193 26.5765 16.0178 26.3428C15.9162 26.1091 15.7675 25.8969 15.58 25.7186L9 19.4274L29 19.4274C29.5304 19.4274 30.0391 19.2253 30.4142 18.8656C30.7893 18.5059 31 18.0181 31 17.5094C31 17.0007 30.7893 16.5128 30.4142 16.1531C30.0391 15.7934 29.5304 15.5913 29 15.5913L9 15.5913L15.58 9.28094C15.9566 8.92231 16.1692 8.43489 16.1711 7.92591C16.173 7.41693 15.964 6.92808 15.59 6.5669C15.216 6.20573 14.7078 6.00181 14.1771 6.00001C13.6463 5.99821 13.1366 6.19868 12.76 6.55732L4.18 14.8049C3.42882 15.521 3.00447 16.4936 3 17.5094Z" fill="#585858"/>
</svg>
