<svg width="80" height="80" viewBox="0 0 80 80" fill="none" xmlns="http://www.w3.org/2000/svg">
<path d="M40.3996 45.0999C40.3329 45.0999 40.2329 45.0999 40.1663 45.0999C40.0663 45.0999 39.9329 45.0999 39.8329 45.0999C32.2663 44.8666 26.5996 38.9666 26.5996 31.6999C26.5996 24.2999 32.6329 18.2666 40.0329 18.2666C47.4329 18.2666 53.4663 24.2999 53.4663 31.6999C53.4329 38.9999 47.7329 44.8666 40.4996 45.0999C40.4329 45.0999 40.4329 45.0999 40.3996 45.0999ZM39.9996 23.2333C35.3329 23.2333 31.5663 27.0333 31.5663 31.6666C31.5663 36.2333 35.1329 39.9333 39.6663 40.0999C39.7663 40.0666 40.0996 40.0666 40.4329 40.0999C44.8996 39.8666 48.3996 36.1999 48.4329 31.6666C48.4329 27.0333 44.6663 23.2333 39.9996 23.2333Z" fill="#585858"/>
<path d="M40.0001 75.8334C31.0334 75.8334 22.4668 72.5001 15.8334 66.4334C15.2334 65.9001 14.9668 65.1001 15.0334 64.3334C15.4668 60.3667 17.9334 56.6667 22.0334 53.9334C31.9668 47.3334 48.0668 47.3334 57.9668 53.9334C62.0668 56.7001 64.5334 60.3667 64.9668 64.3334C65.0668 65.1334 64.7668 65.9001 64.1668 66.4334C57.5334 72.5001 48.9668 75.8334 40.0001 75.8334ZM20.2668 63.6667C25.8001 68.3001 32.7668 70.8334 40.0001 70.8334C47.2334 70.8334 54.2001 68.3001 59.7334 63.6667C59.1334 61.6334 57.5334 59.6667 55.1668 58.0667C46.9668 52.6001 33.0668 52.6001 24.8001 58.0667C22.4334 59.6667 20.8668 61.6334 20.2668 63.6667Z" fill="#585858"/>
<path d="M40.0003 75.8332C20.2337 75.8332 4.16699 59.7665 4.16699 39.9998C4.16699 20.2332 20.2337 4.1665 40.0003 4.1665C59.767 4.1665 75.8337 20.2332 75.8337 39.9998C75.8337 59.7665 59.767 75.8332 40.0003 75.8332ZM40.0003 9.1665C23.0003 9.1665 9.16699 22.9998 9.16699 39.9998C9.16699 56.9998 23.0003 70.8332 40.0003 70.8332C57.0003 70.8332 70.8337 56.9998 70.8337 39.9998C70.8337 22.9998 57.0003 9.1665 40.0003 9.1665Z" fill="#585858"/>
</svg>
