<svg width="38" height="38" viewBox="0 0 38 38" fill="none" xmlns="http://www.w3.org/2000/svg">
<g clip-path="url(#clip0_179_15)">
<path d="M28.9623 3.9434H27.4906V2.4717C27.4906 2.08138 27.3355 1.70705 27.0595 1.43105C26.7835 1.15505 26.4092 1 26.0189 1C25.6285 1 25.2542 1.15505 24.9782 1.43105C24.7022 1.70705 24.5472 2.08138 24.5472 2.4717V3.9434H12.7736V2.4717C12.7736 2.08138 12.6185 1.70705 12.3425 1.43105C12.0665 1.15505 11.6922 1 11.3019 1C10.9116 1 10.5372 1.15505 10.2612 1.43105C9.98524 1.70705 9.83019 2.08138 9.83019 2.4717V3.9434H8.35849C6.40762 3.94573 4.53731 4.72175 3.15783 6.10123C1.77835 7.48071 1.00234 9.35101 1 11.3019L1 28.9623C1.00234 30.9131 1.77835 32.7834 3.15783 34.1629C4.53731 35.5424 6.40762 36.3184 8.35849 36.3208H28.9623C30.9131 36.3184 32.7834 35.5424 34.1629 34.1629C35.5424 32.7834 36.3184 30.9131 36.3208 28.9623V11.3019C36.3184 9.35101 35.5424 7.48071 34.1629 6.10123C32.7834 4.72175 30.9131 3.94573 28.9623 3.9434ZM3.9434 11.3019C3.9434 10.1309 4.40856 9.00793 5.23655 8.17994C6.06454 7.35195 7.18753 6.88679 8.35849 6.88679H28.9623C30.1332 6.88679 31.2562 7.35195 32.0842 8.17994C32.9122 9.00793 33.3774 10.1309 33.3774 11.3019V12.7736H3.9434V11.3019ZM28.9623 33.3774H8.35849C7.18753 33.3774 6.06454 32.9122 5.23655 32.0842C4.40856 31.2562 3.9434 30.1332 3.9434 28.9623V15.717H33.3774V28.9623C33.3774 30.1332 32.9122 31.2562 32.0842 32.0842C31.2562 32.9122 30.1332 33.3774 28.9623 33.3774Z" fill="currentColor"/>
<path d="M18.6604 25.283C19.8796 25.283 20.868 24.2947 20.868 23.0755C20.868 21.8563 19.8796 20.8679 18.6604 20.8679C17.4412 20.8679 16.4529 21.8563 16.4529 23.0755C16.4529 24.2947 17.4412 25.283 18.6604 25.283Z" fill="currentColor"/>
<path d="M11.3019 25.283C12.5211 25.283 13.5095 24.2947 13.5095 23.0755C13.5095 21.8563 12.5211 20.8679 11.3019 20.8679C10.0827 20.8679 9.09436 21.8563 9.09436 23.0755C9.09436 24.2947 10.0827 25.283 11.3019 25.283Z" fill="currentColor"/>
<path d="M26.0188 25.283C27.238 25.283 28.2264 24.2947 28.2264 23.0755C28.2264 21.8563 27.238 20.8679 26.0188 20.8679C24.7996 20.8679 23.8113 21.8563 23.8113 23.0755C23.8113 24.2947 24.7996 25.283 26.0188 25.283Z" fill="currentColor"/>
</g>
<defs>
<clipPath id="clip0_179_15">
<rect width="35.3208" height="35.3208" fill="white" transform="translate(1 1)"/>
</clipPath>
</defs>
</svg>
