<svg width="53" height="53" viewBox="0 0 53 53" fill="none" xmlns="http://www.w3.org/2000/svg">
<g clip-path="url(#clip0_53_1408)">
<path d="M41.9583 4.41667H39.75V2.20833C39.75 1.62265 39.5173 1.06095 39.1032 0.646806C38.6891 0.232663 38.1274 0 37.5417 0C36.956 0 36.3943 0.232663 35.9801 0.646806C35.566 1.06095 35.3333 1.62265 35.3333 2.20833V4.41667H17.6667V2.20833C17.6667 1.62265 17.434 1.06095 17.0199 0.646806C16.6057 0.232663 16.044 0 15.4583 0C14.8726 0 14.3109 0.232663 13.8968 0.646806C13.4827 1.06095 13.25 1.62265 13.25 2.20833V4.41667H11.0417C8.11431 4.42017 5.30786 5.58461 3.2379 7.65457C1.16795 9.72452 0.00350652 12.531 0 15.4583L0 41.9583C0.00350652 44.8857 1.16795 47.6921 3.2379 49.7621C5.30786 51.8321 8.11431 52.9965 11.0417 53H41.9583C44.8857 52.9965 47.6921 51.8321 49.7621 49.7621C51.8321 47.6921 52.9965 44.8857 53 41.9583V15.4583C52.9965 12.531 51.8321 9.72452 49.7621 7.65457C47.6921 5.58461 44.8857 4.42017 41.9583 4.41667ZM2.5 15.4583C2.5 13.7013 3.75757 10.7424 5 9.5C6.24243 8.25757 9.28461 7 11.0417 7H41.9583C43.7154 7 46.7576 8.75757 48 10C49.2424 11.2424 50.5 13.7013 50.5 15.4583V18.5H2.5V15.4583ZM42 50.5H26.5H10.5C8.74294 50.5 6.24243 48.7424 5 47.5C3.75757 46.2576 2.5 43.7154 2.5 41.9583V21.5H50.5V41.9583C50.5 43.7154 49.2424 46.2576 48 47.5C46.7576 48.7424 43.7571 50.5 42 50.5Z" fill="#585858"/>
<path d="M26.5 36.4375C28.3294 36.4375 29.8125 34.9544 29.8125 33.125C29.8125 31.2956 28.3294 29.8125 26.5 29.8125C24.6706 29.8125 23.1875 31.2956 23.1875 33.125C23.1875 34.9544 24.6706 36.4375 26.5 36.4375Z" fill="#585858"/>
<path d="M15.4583 36.4375C17.2877 36.4375 18.7708 34.9544 18.7708 33.125C18.7708 31.2956 17.2877 29.8125 15.4583 29.8125C13.6288 29.8125 12.1458 31.2956 12.1458 33.125C12.1458 34.9544 13.6288 36.4375 15.4583 36.4375Z" fill="#585858"/>
<path d="M37.5417 36.4375C39.3712 36.4375 40.8542 34.9544 40.8542 33.125C40.8542 31.2956 39.3712 29.8125 37.5417 29.8125C35.7123 29.8125 34.2292 31.2956 34.2292 33.125C34.2292 34.9544 35.7123 36.4375 37.5417 36.4375Z" fill="#585858"/>
</g>
<defs>
<clipPath id="clip0_53_1408">
<rect width="53" height="53" fill="white"/>
</clipPath>
</defs>
</svg>
