<svg width="36" height="36" viewBox="0 0 36 36" fill="none" xmlns="http://www.w3.org/2000/svg">
<path d="M18 36C8.0707 36 0 27.9293 0 18C0 8.0707 8.0707 0 18 0C27.9293 0 36 8.0707 36 18C36 27.9293 27.9293 36 18 36ZM18 2.51163C9.46047 2.51163 2.51163 9.46047 2.51163 18C2.51163 26.5395 9.46047 33.4884 18 33.4884C26.5395 33.4884 33.4884 26.5395 33.4884 18C33.4884 9.46047 26.5395 2.51163 18 2.51163Z" fill="#585858"/>
<path d="M24.1449 24.3962C23.9272 24.3962 23.7096 24.3459 23.5086 24.212L18.3179 21.1143C17.0286 20.3441 16.0742 18.6529 16.0742 17.1627V10.2976C16.0742 9.61105 16.6435 9.04175 17.33 9.04175C18.0165 9.04175 18.5858 9.61105 18.5858 10.2976V17.1627C18.5858 17.7655 19.0882 18.6529 19.6072 18.9543L24.7979 22.052C25.4007 22.4036 25.5849 23.1738 25.2333 23.7766C24.9821 24.1785 24.5635 24.3962 24.1449 24.3962Z" fill="#585858"/>
</svg>
