<svg width="18" height="18" viewBox="0 0 18 18" fill="none" xmlns="http://www.w3.org/2000/svg">
<path d="M17.3402 3.84119L12.1813 9.00028L17.3402 14.1594C18.2199 15.0391 18.2199 16.461 17.3402 17.3408C16.9015 17.7795 16.3255 18 15.7496 18C15.1736 18 14.5977 17.7795 14.1589 17.3408L9 12.1817L3.84107 17.3408C3.40235 17.7795 2.82639 18 2.25042 18C1.67446 18 1.09849 17.7795 0.659771 17.3408C-0.219924 16.461 -0.219924 15.0391 0.659771 14.1594L5.8187 9.00028L0.659771 3.84119C-0.219924 2.96147 -0.219924 1.53951 0.659771 0.659792C1.53947 -0.219931 2.96138 -0.219931 3.84107 0.659792L9 5.81888L14.1589 0.659792C15.0386 -0.219931 16.4605 -0.219931 17.3402 0.659792C18.2199 1.53951 18.2199 2.96147 17.3402 3.84119Z" fill="#585858"/>
</svg>
