<svg width="25" height="28" viewBox="0 0 25 28" fill="none" xmlns="http://www.w3.org/2000/svg">
<path d="M23.75 5H19.875C19.5849 3.58927 18.8173 2.32168 17.7016 1.4109C16.5859 0.500113 15.1903 0.00181816 13.75 0L11.25 0C9.80974 0.00181816 8.41415 0.500113 7.29844 1.4109C6.18272 2.32168 5.41512 3.58927 5.125 5H1.25C0.918479 5 0.600537 5.1317 0.366116 5.36612C0.131696 5.60054 0 5.91848 0 6.25C0 6.58152 0.131696 6.89946 0.366116 7.13388C0.600537 7.3683 0.918479 7.5 1.25 7.5H2.5V21.75C2.50198 23.407 3.1611 24.9956 4.33278 26.1672C5.50445 27.3389 7.09301 27.998 8.75 28H16.25C17.907 27.998 19.4956 27.3389 20.6672 26.1672C21.8389 24.9956 22.498 23.407 22.5 21.75V7.5H23.75C24.0815 7.5 24.3995 7.3683 24.6339 7.13388C24.8683 6.89946 25 6.58152 25 6.25C25 5.91848 24.8683 5.60054 24.6339 5.36612C24.3995 5.1317 24.0815 5 23.75 5ZM11.25 2.5H13.75C14.5253 2.50095 15.2814 2.74172 15.9145 3.1893C16.5476 3.63689 17.0268 4.26936 17.2863 5H7.71375C7.97323 4.26936 8.45238 3.63689 9.08548 3.1893C9.71859 2.74172 10.4747 2.50095 11.25 2.5ZM20 21.75C20 22.7446 19.6049 23.6984 18.9017 24.4017C18.1984 25.1049 17.2446 25.5 16.25 25.5H8.75C7.75544 25.5 6.80161 25.1049 6.09835 24.4017C5.39509 23.6984 5 22.7446 5 21.75V7.5H20V21.75Z" fill="#585858"/>
</svg>
