<svg width="28" height="28" viewBox="0 0 28 28" fill="none" xmlns="http://www.w3.org/2000/svg">
<path d="M25.75 5H21.875C21.5849 3.58927 20.8173 2.32168 19.7016 1.4109C18.5859 0.500113 17.1903 0.00181816 15.75 0L13.25 0C11.8097 0.00181816 10.4141 0.500113 9.29844 1.4109C8.18272 2.32168 7.41512 3.58927 7.125 5H3.25C2.91848 5 2.60054 5.1317 2.36612 5.36612C2.1317 5.60054 2 5.91848 2 6.25C2 6.58152 2.1317 6.89946 2.36612 7.13388C2.60054 7.3683 2.91848 7.5 3.25 7.5H4.5V21.75C4.50198 23.407 5.1611 24.9956 6.33278 26.1672C7.50445 27.3389 9.09301 27.998 10.75 28H18.25C19.907 27.998 21.4956 27.3389 22.6672 26.1672C23.8389 24.9956 24.498 23.407 24.5 21.75V7.5H25.75C26.0815 7.5 26.3995 7.3683 26.6339 7.13388C26.8683 6.89946 27 6.58152 27 6.25C27 5.91848 26.8683 5.60054 26.6339 5.36612C26.3995 5.1317 26.0815 5 25.75 5ZM13.25 2.5H15.75C16.5253 2.50095 17.2814 2.74172 17.9145 3.1893C18.5476 3.63689 19.0268 4.26936 19.2863 5H9.71375C9.97323 4.26936 10.4524 3.63689 11.0855 3.1893C11.7186 2.74172 12.4747 2.50095 13.25 2.5ZM22 21.75C22 22.7446 21.6049 23.6984 20.9017 24.4017C20.1984 25.1049 19.2446 25.5 18.25 25.5H10.75C9.75544 25.5 8.80161 25.1049 8.09835 24.4017C7.39509 23.6984 7 22.7446 7 21.75V7.5H22V21.75Z" fill="#585858"/>
</svg>
