<svg width="48" height="48" viewBox="0 0 48 48" fill="none" xmlns="http://www.w3.org/2000/svg">
<g clip-path="url(#clip0_53_1402)">
<path d="M14 0H8C5.87827 0 3.84344 0.842855 2.34315 2.34315C0.842855 3.84344 0 5.87827 0 8L0 14C0 16.1217 0.842855 18.1566 2.34315 19.6569C3.84344 21.1571 5.87827 22 8 22H14C16.1217 22 18.1566 21.1571 19.6569 19.6569C21.1571 18.1566 22 16.1217 22 14V8C22 5.87827 21.1571 3.84344 19.6569 2.34315C18.1566 0.842855 16.1217 0 14 0ZM19.5 14C19.5 15.0609 18.7501 17.2499 18 18C17.2499 18.7501 15.0609 19.5 14 19.5H8C6.91811 19.572 4.70106 18.9188 4 18C3.24985 17.2499 2.5 15.0609 2.5 14V8C2.2961 6.91796 2.97216 4.7218 4 4C5 3 6.87119 2.51317 8 2.5H14C15.9865 2.59941 17.5 4 18 4.5C18.5 5 19.5 6.93913 19.5 8V14Z" fill="#585858"/>
<path d="M14 26H8C5.87827 26 3.84344 26.8429 2.34315 28.3431C0.842855 29.8434 0 31.8783 0 34L0 40C0 42.1217 0.842855 44.1566 2.34315 45.6569C3.84344 47.1571 5.87827 48 8 48H14C16.1217 48 18.1566 47.1571 19.6569 45.6569C21.1571 44.1566 22 42.1217 22 40V34C22 31.8783 21.1571 29.8434 19.6569 28.3431C18.1566 26.8429 16.1217 26 14 26ZM19.5 40C19.5 41.0609 18.7501 43.2499 18 44C17.2499 44.7501 15.0609 45.5 14 45.5H8C6.91811 45.572 4.70106 44.9188 4 44C3.24985 43.2499 2.5 41.0609 2.5 40V34C2.2961 32.918 2.97216 30.7218 4 30C5 29 6.87119 28.5132 8 28.5H14C15.9865 28.5994 17.5 30 18 30.5C18.5 31 19.5 32.9391 19.5 34V40Z" fill="#585858"/>
<path d="M40 26H34C31.8783 26 29.8434 26.8429 28.3431 28.3431C26.8429 29.8434 26 31.8783 26 34V40C26 42.1217 26.8429 44.1566 28.3431 45.6569C29.8434 47.1571 31.8783 48 34 48H40C42.1217 48 44.1566 47.1571 45.6569 45.6569C47.1571 44.1566 48 42.1217 48 40V34C48 31.8783 47.1571 29.8434 45.6569 28.3431C44.1566 26.8429 42.1217 26 40 26ZM45.5 40C45.5 41.0609 44.7501 43.2499 44 44C43.2499 44.7501 41.0609 45.5 40 45.5H34C32.9181 45.572 30.7011 44.9188 30 44C29.2499 43.2499 28.5 41.0609 28.5 40V34C28.2961 32.918 28.9722 30.7218 30 30C31 29 32.8712 28.5132 34 28.5H40C41.9865 28.5994 43.5 30 44 30.5C44.5 31 45.5 32.9391 45.5 34V40Z" fill="#585858"/>
<path d="M28 13.5H34.5858V20C34.5858 20.5304 34.6249 21.1249 35 21.5C35.3751 21.8751 35.4696 22 36 22C36.5304 22 36.6249 21.8751 37 21.5C37.3751 21.1249 37.5 20.5304 37.5 20L37.4142 13.5H44C44.5304 13.5 45.1249 13.3751 45.5 13C45.8751 12.6249 46 12.5304 46 12C46 11.4696 45.8751 11.3751 45.5 11C45.1249 10.6249 44.5304 10.5 44 10.5L37.4142 10.5858V4C37.4142 3.46957 37.3751 2.87507 37 2.5C36.6249 2.12493 36.5304 2 36 2C35.4696 2 35.3751 2.12493 35 2.5C34.6249 2.87507 34.5 3.46957 34.5 4L34.5858 10.5858L28 10.5C27.4696 10.5 26.8751 10.6249 26.5 11C26.1249 11.3751 26 11.4696 26 12C26 12.5304 26.1249 12.6249 26.5 13C26.8751 13.3751 27.4696 13.5 28 13.5Z" fill="#585858"/>
</g>
<defs>
<clipPath id="clip0_53_1402">
<rect width="48" height="48" fill="white"/>
</clipPath>
</defs>
</svg>
