<svg width="40" height="40" viewBox="0 0 40 40" fill="none" xmlns="http://www.w3.org/2000/svg">
<path fill-rule="evenodd" clip-rule="evenodd" d="M11.5 26.8002H28.5C33.1944 26.8002 37 30.6057 37 35.3002C37 36.2391 36.2389 37.0002 35.3 37.0002C34.4282 37.0002 33.7096 36.3439 33.6114 35.4984L33.5913 35.0005C33.442 32.4225 31.3777 30.3582 28.7997 30.2088L28.5 30.2002H11.5C8.68335 30.2002 6.4 32.4835 6.4 35.3002C6.4 36.2391 5.63888 37.0002 4.7 37.0002C3.76112 37.0002 3 36.2391 3 35.3002C3 30.7293 6.60792 27.0011 11.1313 26.808L11.5 26.8002ZM20.0003 3C20.6909 3 21.3736 3.06887 22.0409 3.2045C22.961 3.3915 23.5553 4.28896 23.3683 5.20903C23.1813 6.1291 22.2838 6.72338 21.3638 6.53638C20.919 6.44599 20.4631 6.4 20.0003 6.4C16.2448 6.4 13.2003 9.44446 13.2003 13.2C13.2003 16.9555 16.2448 20 20.0003 20C22.1675 20 24.1622 18.9814 25.4405 17.2807C26.0046 16.5301 27.0703 16.379 27.8208 16.9431C28.5713 17.5072 28.7225 18.5729 28.1584 19.3234C26.2446 21.8698 23.248 23.4 20.0003 23.4C14.367 23.4 9.80033 18.8333 9.80033 13.2C9.80033 7.5667 14.367 3 20.0003 3ZM31.8997 3C32.8386 3 33.5997 3.76112 33.5997 4.7V6.4H35.2997C36.2386 6.4 36.9997 7.16112 36.9997 8.1C36.9997 9.03888 36.2386 9.8 35.2997 9.8H33.5997V11.5C33.5997 12.4389 32.8386 13.2 31.8997 13.2C30.9608 13.2 30.1997 12.4389 30.1997 11.5V9.8H28.4997C27.5608 9.8 26.7997 9.03888 26.7997 8.1C26.7997 7.16112 27.5608 6.4 28.4997 6.4H30.1997V4.7C30.1997 3.76112 30.9608 3 31.8997 3Z" fill="#585858"/>
</svg>
