<svg width="38" height="38" viewBox="0 0 38 38" fill="none" xmlns="http://www.w3.org/2000/svg">
<g clip-path="url(#clip0_179_13)">
<path d="M11.0828 9.49992H36.4162C36.8361 9.49992 37.2388 9.3331 37.5358 9.03617C37.8327 8.73924 37.9995 8.33651 37.9995 7.91659C37.9995 7.49666 37.8327 7.09393 37.5358 6.797C37.2388 6.50007 36.8361 6.33325 36.4162 6.33325H11.0828C10.6629 6.33325 10.2602 6.50007 9.96326 6.797C9.66633 7.09393 9.49951 7.49666 9.49951 7.91659C9.49951 8.33651 9.66633 8.73924 9.96326 9.03617C10.2602 9.3331 10.6629 9.49992 11.0828 9.49992Z" fill="currentColor"/>
<path d="M36.4162 17.4167H11.0828C10.6629 17.4167 10.2602 17.5836 9.96326 17.8805C9.66633 18.1774 9.49951 18.5802 9.49951 19.0001C9.49951 19.42 9.66633 19.8227 9.96326 20.1197C10.2602 20.4166 10.6629 20.5834 11.0828 20.5834H36.4162C36.8361 20.5834 37.2388 20.4166 37.5358 20.1197C37.8327 19.8227 37.9995 19.42 37.9995 19.0001C37.9995 18.5802 37.8327 18.1774 37.5358 17.8805C37.2388 17.5836 36.8361 17.4167 36.4162 17.4167Z" fill="currentColor"/>
<path d="M36.4162 28.5H11.0828C10.6629 28.5 10.2602 28.6668 9.96326 28.9637C9.66633 29.2607 9.49951 29.6634 9.49951 30.0833C9.49951 30.5033 9.66633 30.906 9.96326 31.2029C10.2602 31.4999 10.6629 31.6667 11.0828 31.6667H36.4162C36.8361 31.6667 37.2388 31.4999 37.5358 31.2029C37.8327 30.906 37.9995 30.5033 37.9995 30.0833C37.9995 29.6634 37.8327 29.2607 37.5358 28.9637C37.2388 28.6668 36.8361 28.5 36.4162 28.5Z" fill="currentColor"/>
<path d="M3.16642 11.0833C4.91532 11.0833 6.33309 9.66557 6.33309 7.91667C6.33309 6.16776 4.91532 4.75 3.16642 4.75C1.41752 4.75 -0.000244141 6.16776 -0.000244141 7.91667C-0.000244141 9.66557 1.41752 11.0833 3.16642 11.0833Z" fill="currentColor"/>
<path d="M3.16618 22.1666C4.91508 22.1666 6.33284 20.7488 6.33284 18.9999C6.33284 17.251 4.91508 15.8333 3.16618 15.8333C1.41728 15.8333 -0.000488281 17.251 -0.000488281 18.9999C-0.000488281 20.7488 1.41728 22.1666 3.16618 22.1666Z" fill="currentColor"/>
<path d="M3.16618 33.2501C4.91508 33.2501 6.33284 31.8323 6.33284 30.0834C6.33284 28.3345 4.91508 26.9167 3.16618 26.9167C1.41728 26.9167 -0.000488281 28.3345 -0.000488281 30.0834C-0.000488281 31.8323 1.41728 33.2501 3.16618 33.2501Z" fill="currentColor"/>
</g>
<defs>
<clipPath id="clip0_179_13">
<rect width="38" height="38" fill="white"/>
</clipPath>
</defs>
</svg>
