<svg width="36" height="36" viewBox="0 0 36 36" fill="none" xmlns="http://www.w3.org/2000/svg">
<path fill-rule="evenodd" clip-rule="evenodd" d="M17.9999 7.71411C14.4871 7.71411 11.6362 10.5941 11.6362 14.1427C11.6362 17.6912 14.4871 20.5712 17.9999 20.5712C21.5126 20.5712 24.3635 17.6912 24.3635 14.1427C24.3635 10.5941 21.5126 7.71411 17.9999 7.71411ZM14.1817 14.1427C14.1817 12.0084 15.8871 10.2855 17.9999 10.2855C20.1126 10.2855 21.818 12.0084 21.818 14.1427C21.818 16.277 20.1126 17.9998 17.9999 17.9998C15.8871 17.9998 14.1817 16.277 14.1817 14.1427Z" fill="#585858"/>
<path fill-rule="evenodd" clip-rule="evenodd" d="M17.2109 35.73C17.2109 35.73 17.2109 35.7299 18 34.7142L17.2109 35.73C17.6691 36.09 18.3309 36.09 18.7891 35.73L18 34.7142C18.7891 35.7299 18.7891 35.73 18.7891 35.73V35.7171H18.8018L18.8273 35.6914C18.8655 35.6657 18.9036 35.64 18.9418 35.5886C19.0436 35.5114 19.1836 35.3957 19.3745 35.2414C19.7309 34.9329 20.24 34.4828 20.8509 33.9042C22.0727 32.7599 23.7146 31.1143 25.3437 29.1085C28.5764 25.1743 32 19.6328 32 13.7442C32 6.11992 25.7 0 18 0C10.3 0 4 6.11992 4 13.7442C4 19.6328 7.42361 25.1743 10.6563 29.1085C12.2854 31.1143 13.9273 32.7599 15.1491 33.9042C15.76 34.4828 16.2691 34.9329 16.6255 35.2414C16.8164 35.3957 16.9564 35.5114 17.0582 35.5886C17.0964 35.64 17.1345 35.6657 17.1727 35.6914L17.1982 35.7171H17.2109V35.73ZM6.54545 13.7442C6.54545 7.61134 11.6364 2.57142 18 2.57142C24.3636 2.57142 29.4545 7.61134 29.4545 13.7442C29.4545 18.6942 26.5145 23.6442 23.3836 27.4757C21.8309 29.3657 20.2909 30.9343 19.12 32.0143C18.6873 32.4257 18.3055 32.7727 18 33.0427C17.6945 32.7727 17.3127 32.4257 16.88 32.0143C15.7091 30.9343 14.1691 29.3657 12.6164 27.4757C9.48548 23.6442 6.54545 18.6942 6.54545 13.7442Z" fill="#585858"/>
</svg>
