<svg width="38" height="39" viewBox="0 0 38 39" fill="none" xmlns="http://www.w3.org/2000/svg">
<path d="M37.849 26.1567L35.1098 13.015C33.7323 8.075 29.6632 4.4175 24.7707 3.43583C22.3007 1.21917 19.134 0 15.8248 0C9.47566 0.0158333 4.07649 4.33833 2.69899 10.5608L0.102327 23.1325C-0.182673 24.4467 0.133994 25.8083 0.973161 26.8692C1.81233 27.93 3.07899 28.5317 4.42483 28.5317H6.53066C6.68899 29.07 6.94233 29.5925 7.30649 30.0358C8.14566 31.0967 9.41233 31.6983 10.7582 31.6983H15.1123C15.5082 35.245 18.5007 38.0317 22.1582 38.0317C25.8157 38.0317 28.8082 35.245 29.204 31.6983H33.5582C34.8723 31.6983 36.0915 31.1283 36.9307 30.1467L37.089 29.9567C37.9282 28.8483 38.1973 27.4392 37.849 26.1883V26.1567ZM6.62566 25.3492H4.42483C4.02899 25.3492 3.68066 25.175 3.44316 24.8742C3.20566 24.5733 3.11066 24.1775 3.18983 23.7817L5.78649 11.2258C6.84733 6.49167 10.964 3.1825 15.809 3.1825C16.8065 3.1825 17.7882 3.325 18.7382 3.61C13.9407 4.845 10.1407 8.66083 9.01649 13.7275L6.60983 25.3492H6.62566ZM22.1582 34.8492C20.2423 34.8492 18.6432 33.4875 18.279 31.6825H26.0373C25.6732 33.4875 24.074 34.8492 22.1582 34.8492ZM34.6032 27.9775L34.5715 28.0092C34.3182 28.3258 33.9698 28.5158 33.5582 28.5158H10.7582C10.3782 28.5158 10.014 28.3417 9.77649 28.0408C9.53899 27.74 9.44399 27.3442 9.53899 26.9483L12.1357 14.3925C13.1965 9.65833 17.3132 6.34917 22.1582 6.34917C26.7498 6.34917 30.8348 9.43667 32.0382 13.775L34.7773 26.9167C34.8882 27.2967 34.809 27.6767 34.5873 27.9933L34.6032 27.9775Z" fill="#585858"/>
</svg>
