<svg width="38" height="38" viewBox="0 0 38 38" fill="none" xmlns="http://www.w3.org/2000/svg">
<path d="M37.8515 26.1349L35.1122 13.0042C33.7346 8.06828 29.6652 4.41382 24.7723 3.43297C22.3022 1.21815 19.1353 0 15.8259 0C9.4763 0.0158201 4.07677 4.33472 2.69918 10.552L0.102334 23.1132C-0.182685 24.4263 0.134003 25.7868 0.973226 26.8468C1.81245 27.9067 3.0792 28.5079 4.42512 28.5079H6.5311C6.68944 29.0458 6.94279 29.5679 7.30698 30.0108C8.14621 31.0708 9.41296 31.6719 10.7589 31.6719H15.1133C15.5092 35.2157 18.5019 38 22.1596 38C25.8174 38 28.8101 35.2157 29.206 31.6719H33.5604C34.8747 31.6719 36.0939 31.1024 36.9331 30.1216L37.0915 29.9317C37.9307 28.8243 38.1999 27.4163 37.8515 26.1665V26.1349ZM6.62611 25.3281H4.42512C4.02926 25.3281 3.68091 25.154 3.44339 24.8535C3.20588 24.5529 3.11087 24.1574 3.19004 23.7619L5.78688 11.2165C6.84779 6.48626 10.9647 3.17985 15.8101 3.17985C16.8076 3.17985 17.7894 3.32223 18.7394 3.60699C13.9416 4.84097 10.1413 8.65362 9.0171 13.7161L6.61027 25.3281H6.62611ZM22.1596 34.8201C20.2437 34.8201 18.6444 33.4596 18.2802 31.6561H26.0391C25.6749 33.4596 24.0756 34.8201 22.1596 34.8201ZM34.6055 27.9542L34.5738 27.9858C34.3205 28.3022 33.9721 28.4921 33.5604 28.4921H10.7589C10.3789 28.4921 10.0147 28.3181 9.77715 28.0175C9.53963 27.7169 9.44463 27.3214 9.53963 26.9259L12.1365 14.3805C13.1974 9.65029 17.3143 6.34388 22.1596 6.34388C26.7516 6.34388 30.8369 9.42881 32.0403 13.7635L34.7797 26.8943C34.8905 27.2739 34.8113 27.6536 34.5897 27.97L34.6055 27.9542Z" fill="#585858"/>
</svg>
