<svg width="40" height="40" viewBox="0 0 40 40" fill="none" xmlns="http://www.w3.org/2000/svg">
<path fill-rule="evenodd" clip-rule="evenodd" d="M28.4997 3C29.4386 3 30.1997 3.76112 30.1997 4.7V6.4H31.8997C34.7163 6.4 36.9997 8.68335 36.9997 11.5V14.9C36.9997 15.8389 36.2386 16.6 35.2997 16.6C34.3608 16.6 33.5997 15.8389 33.5997 14.9V11.5C33.5997 10.5611 32.8386 9.8 31.8997 9.8H30.1997V11.5C30.1997 12.4389 29.4386 13.2 28.4997 13.2C27.5609 13.2 26.7998 12.4389 26.7998 11.5V9.8H13.1999V11.5C13.1999 12.4389 12.4388 13.2 11.4999 13.2C10.561 13.2 9.79993 12.4389 9.79993 11.5V9.8H8.09995C7.16107 9.8 6.39997 10.5611 6.39997 11.5V16.6H14.8999C15.8388 16.6 16.5999 17.3611 16.5999 18.3C16.5999 19.2389 15.8388 20 14.8999 20H6.39997V31.9C6.39997 32.8389 7.16107 33.6 8.09995 33.6H14.8999C15.8388 33.6 16.5999 34.3611 16.5999 35.3C16.5999 36.2389 15.8388 37 14.8999 37H8.09995C5.28333 37 3 34.7167 3 31.9V11.5C3 8.68335 5.28333 6.4 8.09995 6.4H9.79993V4.7C9.79993 3.76112 10.561 3 11.4999 3C12.4388 3 13.1999 3.76112 13.1999 4.7V6.4H26.7998V4.7C26.7998 3.76112 27.5609 3 28.4997 3ZM28.5001 19.9998C29.439 19.9998 30.2001 20.7609 30.2001 21.6998V26.7998H35.3C36.2389 26.7998 37 27.561 37 28.4998C37 29.4387 36.2389 30.1998 35.3 30.1998H30.2001V35.2998C30.2001 36.2387 29.439 36.9998 28.5001 36.9998C27.5612 36.9998 26.8001 36.2387 26.8001 35.2998V30.1998H21.7001C20.7613 30.1998 20.0002 29.4387 20.0002 28.4998C20.0002 27.561 20.7613 26.7998 21.7001 26.7998H26.8001V21.6998C26.8001 20.7609 27.5612 19.9998 28.5001 19.9998Z" fill="#585858"/>
</svg>
