<svg width="24" height="24" viewBox="0 0 24 24" fill="none" xmlns="http://www.w3.org/2000/svg">
<path d="M24.0772 21.8757L19.4316 17.2282C22.9076 12.5831 21.9598 5.99952 17.3147 2.52351C12.6695 -0.952509 6.08595 -0.00471358 2.60993 4.64045C-0.866083 9.28562 0.0817122 15.8692 4.72688 19.3452C8.45826 22.1374 13.5832 22.1374 17.3147 19.3452L21.9622 23.9927C22.5462 24.5767 23.4931 24.5767 24.0771 23.9927C24.6611 23.4087 24.6611 22.4617 24.0771 21.8778L24.0772 21.8757ZM11.0595 18.4482C6.9311 18.4482 3.5844 15.1015 3.5844 10.9731C3.5844 6.84467 6.9311 3.49798 11.0595 3.49798C15.1879 3.49798 18.5346 6.84467 18.5346 10.9731C18.5302 15.0996 15.1861 18.4438 11.0595 18.4482Z" fill="#696967"/>
</svg>
