<svg width="39" height="43" viewBox="0 0 39 43" fill="none" xmlns="http://www.w3.org/2000/svg">
<path d="M0.724163 32.25C2.20615 34.8221 5.49271 35.7058 8.06482 34.2238C8.06658 34.2228 8.06826 34.2218 8.07002 34.2208L8.86729 33.7603C10.3723 35.0479 12.1022 36.0465 13.9699 36.7058V37.625C13.9699 40.5935 16.3764 43 19.3449 43C22.3134 43 24.7199 40.5935 24.7199 37.625V36.7059C26.5879 36.0455 28.3179 35.0458 29.8226 33.7568L30.6234 34.219C33.1961 35.7033 36.485 34.8209 37.9693 32.2482C39.4536 29.6755 38.5712 26.3865 35.9984 24.9023L35.2029 24.4437C35.5611 22.4951 35.5611 20.4976 35.2029 18.549L35.9984 18.0904C38.5711 16.6061 39.4536 13.3173 37.9693 10.7445C36.485 8.17185 33.1962 7.28942 30.6234 8.77368L29.8262 9.23417C28.3197 7.94811 26.5886 6.95139 24.7199 6.29413V5.375C24.7199 2.40649 22.3134 0 19.3449 0C16.3764 0 13.9699 2.40649 13.9699 5.375V6.29413C12.1019 6.95449 10.372 7.95424 8.86729 9.24324L8.06641 8.77922C5.49364 7.29488 2.20481 8.17731 0.720551 10.75C-0.763704 13.3227 0.118635 16.6116 2.69141 18.0959L3.48691 18.5545C3.1288 20.503 3.1288 22.5005 3.48691 24.4491L2.69141 24.9077C0.125774 26.396 -0.75371 29.6784 0.724163 32.25ZM19.3449 14.3334C23.3029 14.3334 26.5116 17.542 26.5116 21.5C26.5116 25.458 23.3029 28.6666 19.3449 28.6666C15.3869 28.6666 12.1783 25.458 12.1783 21.5C12.1783 17.542 15.3869 14.3334 19.3449 14.3334Z" fill="#585858"/>
</svg>
