<svg width="36" height="36" viewBox="0 0 36 36" fill="none" xmlns="http://www.w3.org/2000/svg">
<path d="M18 27.4286C19.9338 27.4286 21.5 25.8943 21.5 24C21.5 22.1057 19.9338 20.5714 18 20.5714C16.0662 20.5714 14.5 22.1057 14.5 24C14.5 25.8943 16.0662 27.4286 18 27.4286ZM28.5 12H26.75V8.57143C26.75 3.84 22.83 0 18 0C13.17 0 9.25 3.84 9.25 8.57143H11.4375C11.4375 5.64 15.0075 2.14286 18 2.14286C20.9925 2.14286 24.5625 5.64 24.5625 8.57143V12H7.5C5.56625 12 4 13.5343 4 15.4286V32.5714C4 34.4657 5.56625 36 7.5 36H28.5C30.4338 36 32 34.4657 32 32.5714V15.4286C32 13.5343 30.4338 12 28.5 12ZM29.375 33.8571H6.625V14.1429H29.375V33.8571Z" fill="#585858"/>
</svg>
